<svg xmlns="http://www.w3.org/2000/svg" width="48" height="48" viewBox="0 0 48 48"><path fill-rule="evenodd" fill="#ffffff" d="M17.5,4 h13.0 a2.5,2.5 0 0 1 2.5,2.5 v27.5 a10,10 0 0 1 -10,10 h-5.5 a2.5,2.5 0 0 1 -2.5,-2.5 v-35.0 a2.5,2.5 0 0 1 2.5,-2.5 zM19.2,8 h7.6000000000000005 a1.2,1.2 0 0 1 1.2,1.2 v5.6 a1.2,1.2 0 0 1 -1.2,1.2 h-7.6000000000000005 a1.2,1.2 0 0 1 -1.2,-1.2 v-5.6 a1.2,1.2 0 0 1 1.2,-1.2 zM19.4,27.8 h2.2 v2.1 h2.1 v2.2 h-2.1 v2.1 h-2.2 v-2.1 h-2.1 v-2.2 h2.1 zM27.8,30 a1.7,1.7 0 1 0 3.4,0 a1.7,1.7 0 1 0 -3.4,0 zM25.3,33.5 a1.7,1.7 0 1 0 3.4,0 a1.7,1.7 0 1 0 -3.4,0 z"/></svg>