<svg xmlns="http://www.w3.org/2000/svg" width="48" height="48" viewBox="0 0 48 48"><path fill-rule="evenodd" fill="#000000" d="M24.00,6.00 L27.78,6.50 L31.35,7.78 L34.56,9.77 L37.25,12.38 L39.32,15.48 L40.69,18.94 L41.29,22.58 L41.10,26.25 L40.15,29.78 L38.49,33.01 L36.19,35.80 L33.38,38.03 L30.17,39.61 L26.72,40.46 L23.19,40.57 L19.73,39.94 L16.50,38.59 L13.65,36.61 L11.30,34.08 L9.54,31.13 L8.45,27.90 L8.07,24.52 L8.41,21.16 L9.45,17.97 L11.13,15.09 L13.36,12.64 L16.05,10.73 L19.06,9.44 L22.25,8.82 L25.49,8.89 L28.62,9.63 L31.50,11.01 L26.75,19.24 L25.74,18.57 L24.58,18.12 L23.30,17.93 L21.97,18.02 L20.65,18.41 L19.41,19.10 L18.31,20.06 L17.42,21.27 L16.79,22.69 L16.47,24.25 L16.50,25.88 L16.88,27.51 L17.62,29.06 L18.71,30.45 L20.09,31.60 L21.74,32.45 L23.56,32.94 L25.49,33.03 L27.44,32.70 L29.31,31.95 L31.02,30.79 L32.47,29.26 L33.58,27.43 L34.29,25.35 L34.54,23.14 L34.32,20.87 L33.60,18.66 L32.41,16.62 L30.79,14.85 L28.78,13.44 L26.49,12.47 L24.00,12.00 z"/></svg>