<svg xmlns="http://www.w3.org/2000/svg" width="48" height="48" viewBox="0 0 48 48"><path fill-rule="evenodd" fill="#ffffff" d="M11,16 h26 a8,8 0 0 1 8,8 v0 a8,8 0 0 1 -8,8 h-26 a8,8 0 0 1 -8,-8 v-0 a8,8 0 0 1 8,-8 zM18.5,19 h11.0 a1.5,1.5 0 0 1 1.5,1.5 v7.0 a1.5,1.5 0 0 1 -1.5,1.5 h-11.0 a1.5,1.5 0 0 1 -1.5,-1.5 v-7.0 a1.5,1.5 0 0 1 1.5,-1.5 zM8.9,20.8 h2.2 v2.1 h2.1 v2.2 h-2.1 v2.1 h-2.2 v-2.1 h-2.1 v-2.2 h2.1 zM35.2,22.5 a1.8,1.8 0 1 0 3.6,0 a1.8,1.8 0 1 0 -3.6,0 zM38.2,25.5 a1.8,1.8 0 1 0 3.6,0 a1.8,1.8 0 1 0 -3.6,0 z"/></svg>