<?xml version="1.0" encoding="UTF-8"?>
<svg width="375" height="812" viewBox="0 0 375 812" xmlns="http://www.w3.org/2000/svg">
  <!-- Background -->
  <rect width="375" height="812" fill="#f8f9fa"/>
  
  <!-- Status Bar -->
  <rect x="0" y="0" width="375" height="44" fill="#343a40"/>
  <text x="20" y="25" fill="white" font-size="14" font-weight="bold">9:41</text>
  <text x="320" y="25" fill="white" font-size="14">🔋 📶 📶</text>
  
  <!-- Header -->
  <rect x="0" y="44" width="375" height="60" fill="#007bff" stroke="#0056b3" stroke-width="0 0 1 0"/>
  <text x="50" y="65" fill="white" font-size="16" font-weight="bold">☰</text>
  <text x="187" y="65" text-anchor="middle" fill="white" font-size="18" font-weight="bold">Library</text>
  <text x="325" y="65" fill="white" font-size="16">🔍</text>
  
  <!-- Sub-header with stats -->
  <rect x="0" y="104" width="375" height="40" fill="#e3f2fd" stroke="#007bff" stroke-width="0 0 1 0"/>
  <text x="20" y="125" fill="#007bff" font-size="12">1,247 games</text>
  <text x="120" y="125" fill="#007bff" font-size="12">•</text>
  <text x="135" y="125" fill="#007bff" font-size="12">342 completed</text>
  <text x="310" y="125" fill="#007bff" font-size="12">⊞ Grid</text>
  
  <!-- Search Bar -->
  <rect x="15" y="154" width="345" height="36" rx="18" fill="white" stroke="#ced4da" stroke-width="1"/>
  <text x="35" y="175" fill="#6c757d" font-size="14">🔍 Search games...</text>
  <text x="320" y="175" fill="#007bff" font-size="14">Filter</text>
  
  <!-- Quick Filters -->
  <g transform="translate(15, 200)">
    <rect x="0" y="0" width="60" height="28" rx="14" fill="#007bff"/>
    <text x="30" y="18" text-anchor="middle" fill="white" font-size="12">All</text>
    
    <rect x="70" y="0" width="70" height="28" rx="14" fill="#e9ecef"/>
    <text x="105" y="18" text-anchor="middle" fill="#6c757d" font-size="12">Playing</text>
    
    <rect x="150" y="0" width="80" height="28" rx="14" fill="#e9ecef"/>
    <text x="190" y="18" text-anchor="middle" fill="#6c757d" font-size="12">Completed</text>
    
    <rect x="240" y="0" width="70" height="28" rx="14" fill="#e9ecef"/>
    <text x="275" y="18" text-anchor="middle" fill="#6c757d" font-size="12">Wishlist</text>
  </g>
  
  <!-- Game Cards -->
  <g transform="translate(15, 248)">
    <!-- Game Card 1 -->
    <rect x="0" y="0" width="345" height="100" rx="8" fill="white" stroke="#dee2e6" stroke-width="1"/>
    
    <!-- Cover Art -->
    <rect x="15" y="15" width="70" height="70" rx="4" fill="#e9ecef"/>
    <text x="50" y="53" text-anchor="middle" fill="#6c757d" font-size="10">IMG</text>
    
    <!-- Game Info -->
    <text x="100" y="30" fill="#343a40" font-size="16" font-weight="bold">Baldur's Gate 3</text>
    <text x="100" y="45" fill="#6c757d" font-size="12">Larian Studios • 2023</text>
    
    <!-- Status Badge -->
    <rect x="100" y="55" width="70" height="20" rx="10" fill="#28a745"/>
    <text x="135" y="68" text-anchor="middle" fill="white" font-size="10">Completed</text>
    
    <!-- Rating -->
    <text x="180" y="68" fill="#ffc107" font-size="12">⭐⭐⭐⭐⭐</text>
    
    <!-- Hours -->
    <text x="280" y="30" fill="#6c757d" font-size="12">87h</text>
    <text x="280" y="45" fill="#6c757d" font-size="12">Last: 2h ago</text>
    
    <!-- Platforms -->
    <text x="280" y="75" fill="#007bff" font-size="12">🖥️ 🎮</text>
    
    <!-- Quick Actions -->
    <rect x="300" y="15" width="30" height="25" rx="4" fill="#007bff"/>
    <text x="315" y="30" text-anchor="middle" fill="white" font-size="12">▶</text>
    
    <!-- Game Card 2 -->
    <rect x="0" y="110" width="345" height="100" rx="8" fill="white" stroke="#dee2e6" stroke-width="1"/>
    
    <!-- Cover Art -->
    <rect x="15" y="125" width="70" height="70" rx="4" fill="#e9ecef"/>
    <text x="50" y="163" text-anchor="middle" fill="#6c757d" font-size="10">IMG</text>
    
    <!-- Game Info -->
    <text x="100" y="140" fill="#343a40" font-size="16" font-weight="bold">Cyberpunk 2077</text>
    <text x="100" y="155" fill="#6c757d" font-size="12">CD Projekt RED • 2020</text>
    
    <!-- Status Badge -->
    <rect x="100" y="165" width="70" height="20" rx="10" fill="#007bff"/>
    <text x="135" y="178" text-anchor="middle" fill="white" font-size="10">In Progress</text>
    
    <!-- Rating -->
    <text x="180" y="178" fill="#ffc107" font-size="12">⭐⭐⭐⭐☆</text>
    
    <!-- Hours -->
    <text x="280" y="140" fill="#6c757d" font-size="12">45h</text>
    <text x="280" y="155" fill="#6c757d" font-size="12">Last: 1d ago</text>
    
    <!-- Platforms -->
    <text x="280" y="185" fill="#007bff" font-size="12">🎮</text>
    
    <!-- Progress Bar -->
    <rect x="100" y="185" width="70" height="4" rx="2" fill="#e9ecef"/>
    <rect x="100" y="185" width="42" height="4" rx="2" fill="#007bff"/>
    
    <!-- Quick Actions -->
    <rect x="300" y="125" width="30" height="25" rx="4" fill="#28a745"/>
    <text x="315" y="140" text-anchor="middle" fill="white" font-size="12">▶</text>
    
    <!-- Game Card 3 -->
    <rect x="0" y="220" width="345" height="100" rx="8" fill="white" stroke="#dee2e6" stroke-width="1"/>
    
    <!-- Cover Art -->
    <rect x="15" y="235" width="70" height="70" rx="4" fill="#e9ecef"/>
    <text x="50" y="273" text-anchor="middle" fill="#6c757d" font-size="10">IMG</text>
    
    <!-- Game Info -->
    <text x="100" y="250" fill="#343a40" font-size="16" font-weight="bold">Hollow Knight</text>
    <text x="100" y="265" fill="#6c757d" font-size="12">Team Cherry • 2017</text>
    
    <!-- Status Badge -->
    <rect x="100" y="275" width="70" height="20" rx="10" fill="#6c757d"/>
    <text x="135" y="288" text-anchor="middle" fill="white" font-size="10">Not Started</text>
    
    <!-- Rating -->
    <text x="180" y="288" fill="#e9ecef" font-size="12">☆☆☆☆☆</text>
    
    <!-- Hours -->
    <text x="280" y="250" fill="#6c757d" font-size="12">0h</text>
    <text x="280" y="265" fill="#6c757d" font-size="12">Never</text>
    
    <!-- Platforms -->
    <text x="280" y="295" fill="#007bff" font-size="12">🖥️</text>
    
    <!-- Tags -->
    <rect x="100" y="295" width="35" height="16" rx="8" fill="#17a2b8"/>
    <text x="117" y="305" text-anchor="middle" fill="white" font-size="9">Indie</text>
    
    <!-- Quick Actions -->
    <rect x="300" y="235" width="30" height="25" rx="4" fill="#ffc107"/>
    <text x="315" y="250" text-anchor="middle" fill="white" font-size="12">+</text>
    
    <!-- Game Card 4 -->
    <rect x="0" y="330" width="345" height="100" rx="8" fill="white" stroke="#dee2e6" stroke-width="1"/>
    
    <!-- Cover Art -->
    <rect x="15" y="345" width="70" height="70" rx="4" fill="#e9ecef"/>
    <text x="50" y="383" text-anchor="middle" fill="#6c757d" font-size="10">IMG</text>
    
    <!-- Game Info -->
    <text x="100" y="360" fill="#343a40" font-size="16" font-weight="bold">Elden Ring</text>
    <text x="100" y="375" fill="#6c757d" font-size="12">FromSoftware • 2022</text>
    
    <!-- Status Badge -->
    <rect x="100" y="385" width="70" height="20" rx="10" fill="#17a2b8"/>
    <text x="135" y="398" text-anchor="middle" fill="white" font-size="10">Dominated</text>
    
    <!-- Rating -->
    <text x="180" y="398" fill="#ffc107" font-size="12">⭐⭐⭐⭐⭐</text>
    
    <!-- Hours -->
    <text x="280" y="360" fill="#6c757d" font-size="12">156h</text>
    <text x="280" y="375" fill="#6c757d" font-size="12">Last: 1w ago</text>
    
    <!-- Platforms -->
    <text x="280" y="405" fill="#007bff" font-size="12">🖥️ 🎮</text>
    
    <!-- Loved indicator -->
    <text x="240" y="398" fill="#dc3545" font-size="12">❤️</text>
    
    <!-- Quick Actions -->
    <rect x="300" y="345" width="30" height="25" rx="4" fill="#6c757d"/>
    <text x="315" y="360" text-anchor="middle" fill="white" font-size="12">⋯</text>
  </g>
  
  <!-- Load More Button -->
  <rect x="15" y="688" width="345" height="40" rx="4" fill="#f8f9fa" stroke="#dee2e6" stroke-width="1"/>
  <text x="187" y="712" text-anchor="middle" fill="#007bff" font-size="14">Load more games...</text>
  
  <!-- Bottom Navigation -->
  <rect x="0" y="748" width="375" height="64" fill="white" stroke="#dee2e6" stroke-width="1 0 0 0"/>
  
  <!-- Nav Items -->
  <g transform="translate(0, 758)">
    <!-- Dashboard -->
    <rect x="18" y="0" width="56" height="44" rx="4" fill="transparent"/>
    <text x="46" y="15" text-anchor="middle" fill="#6c757d" font-size="16">📊</text>
    <text x="46" y="30" text-anchor="middle" fill="#6c757d" font-size="10">Dashboard</text>
    
    <!-- Library (Active) -->
    <rect x="93" y="0" width="56" height="44" rx="4" fill="#e3f2fd"/>
    <text x="121" y="15" text-anchor="middle" fill="#007bff" font-size="16">🎮</text>
    <text x="121" y="30" text-anchor="middle" fill="#007bff" font-size="10">Library</text>
    
    <!-- Add Game -->
    <rect x="168" y="0" width="56" height="44" rx="4" fill="transparent"/>
    <text x="196" y="15" text-anchor="middle" fill="#6c757d" font-size="16">➕</text>
    <text x="196" y="30" text-anchor="middle" fill="#6c757d" font-size="10">Add Game</text>
    
    <!-- Wishlist -->
    <rect x="243" y="0" width="56" height="44" rx="4" fill="transparent"/>
    <text x="271" y="15" text-anchor="middle" fill="#6c757d" font-size="16">❤️</text>
    <text x="271" y="30" text-anchor="middle" fill="#6c757d" font-size="10">Wishlist</text>
    
    <!-- Profile -->
    <rect x="318" y="0" width="56" height="44" rx="4" fill="transparent"/>
    <text x="346" y="15" text-anchor="middle" fill="#6c757d" font-size="16">👤</text>
    <text x="346" y="30" text-anchor="middle" fill="#6c757d" font-size="10">Profile</text>
  </g>
  
  <!-- Filter Panel (Hidden) -->
  <g id="filter-panel" opacity="0">
    <rect x="0" y="0" width="375" height="812" fill="rgba(0,0,0,0.5)"/>
    <rect x="0" y="400" width="375" height="412" fill="white" stroke="#dee2e6" stroke-width="1"/>
    
    <!-- Filter Header -->
    <rect x="0" y="400" width="375" height="50" fill="#f8f9fa" stroke="#dee2e6" stroke-width="0 0 1 0"/>
    <text x="20" y="430" fill="#343a40" font-size="16" font-weight="bold">Filters</text>
    <text x="335" y="430" fill="#007bff" font-size="16">Done</text>
    
    <!-- Filter Options -->
    <g transform="translate(20, 470)">
      <!-- Status Filter -->
      <text x="0" y="0" fill="#6c757d" font-size="12" font-weight="bold">STATUS</text>
      <rect x="0" y="10" width="100" height="30" rx="4" fill="#007bff"/>
      <text x="50" y="30" text-anchor="middle" fill="white" font-size="12">All</text>
      
      <rect x="110" y="10" width="100" height="30" rx="4" fill="#e9ecef"/>
      <text x="160" y="30" text-anchor="middle" fill="#6c757d" font-size="12">Playing</text>
      
      <rect x="220" y="10" width="100" height="30" rx="4" fill="#e9ecef"/>
      <text x="270" y="30" text-anchor="middle" fill="#6c757d" font-size="12">Complete</text>
      
      <!-- Platform Filter -->
      <text x="0" y="70" fill="#6c757d" font-size="12" font-weight="bold">PLATFORM</text>
      <rect x="0" y="80" width="80" height="30" rx="4" fill="#007bff"/>
      <text x="40" y="100" text-anchor="middle" fill="white" font-size="12">All</text>
      
      <rect x="90" y="80" width="80" height="30" rx="4" fill="#e9ecef"/>
      <text x="130" y="100" text-anchor="middle" fill="#6c757d" font-size="12">PC</text>
      
      <rect x="180" y="80" width="80" height="30" rx="4" fill="#e9ecef"/>
      <text x="220" y="100" text-anchor="middle" fill="#6c757d" font-size="12">PlayStation</text>
      
      <!-- Sort Filter -->
      <text x="0" y="140" fill="#6c757d" font-size="12" font-weight="bold">SORT BY</text>
      <rect x="0" y="150" width="335" height="30" rx="4" fill="white" stroke="#ced4da" stroke-width="1"/>
      <text x="15" y="170" fill="#343a40" font-size="12">Recently Added ▼</text>
      
      <!-- Reset Filters -->
      <rect x="0" y="200" width="335" height="30" rx="4" fill="#dc3545"/>
      <text x="167" y="220" text-anchor="middle" fill="white" font-size="12">Reset Filters</text>
    </g>
  </g>
  
  <!-- Side Menu (Hidden) -->
  <g id="side-menu" opacity="0">
    <rect x="0" y="0" width="375" height="812" fill="rgba(0,0,0,0.5)"/>
    <rect x="0" y="0" width="280" height="812" fill="#343a40"/>
    
    <!-- Menu Header -->
    <rect x="0" y="44" width="280" height="80" fill="#212529"/>
    <text x="140" y="75" text-anchor="middle" fill="white" font-size="18" font-weight="bold">Nexorious</text>
    <text x="140" y="95" text-anchor="middle" fill="#adb5bd" font-size="12">Game Collection</text>
    
    <!-- Menu Items -->
    <g transform="translate(20, 144)">
      <!-- Dashboard -->
      <rect x="0" y="0" width="240" height="40" rx="4" fill="transparent"/>
      <text x="15" y="15" fill="#adb5bd" font-size="14">📊</text>
      <text x="45" y="15" fill="#adb5bd" font-size="14">Dashboard</text>
      <text x="210" y="15" fill="#6c757d" font-size="12">Overview</text>
      
      <!-- Library -->
      <rect x="0" y="50" width="240" height="40" rx="4" fill="#007bff"/>
      <text x="15" y="65" fill="white" font-size="14">🎮</text>
      <text x="45" y="65" fill="white" font-size="14" font-weight="500">Library</text>
      <text x="210" y="65" fill="#b3d7ff" font-size="12">1,247</text>
      
      <!-- Add Game -->
      <rect x="0" y="100" width="240" height="40" rx="4" fill="transparent"/>
      <text x="15" y="115" fill="#adb5bd" font-size="14">➕</text>
      <text x="45" y="115" fill="#adb5bd" font-size="14">Add Game</text>
      
      <!-- Wishlist -->
      <rect x="0" y="150" width="240" height="40" rx="4" fill="transparent"/>
      <text x="15" y="165" fill="#adb5bd" font-size="14">❤️</text>
      <text x="45" y="165" fill="#adb5bd" font-size="14">Wishlist</text>
      <text x="210" y="165" fill="#6c757d" font-size="12">23</text>
      
      <!-- Statistics -->
      <rect x="0" y="200" width="240" height="40" rx="4" fill="transparent"/>
      <text x="15" y="215" fill="#adb5bd" font-size="14">📈</text>
      <text x="45" y="215" fill="#adb5bd" font-size="14">Statistics</text>
      
      <!-- Settings -->
      <rect x="0" y="600" width="240" height="40" rx="4" fill="transparent"/>
      <text x="15" y="615" fill="#adb5bd" font-size="14">⚙️</text>
      <text x="45" y="615" fill="#adb5bd" font-size="14">Settings</text>
      
      <!-- Profile -->
      <rect x="0" y="650" width="240" height="40" rx="4" fill="transparent"/>
      <circle cx="25" cy="670" r="10" fill="#007bff"/>
      <text x="21" y="674" fill="white" font-size="10" font-weight="bold">JD</text>
      <text x="45" y="670" fill="#adb5bd" font-size="14">John Doe</text>
      <text x="45" y="685" fill="#6c757d" font-size="12">john@example.com</text>
    </g>
  </g>
  
  <!-- Floating Action Button -->
  <circle cx="330" cy="700" r="24" fill="#28a745"/>
  <text x="330" y="708" text-anchor="middle" fill="white" font-size="20" font-weight="bold">+</text>
  
  <!-- Pull to Refresh Indicator -->
  <g id="pull-refresh" opacity="0">
    <circle cx="187" cy="120" r="12" fill="none" stroke="#007bff" stroke-width="2" stroke-dasharray="6,4">
      <animateTransform attributeName="transform" type="rotate" dur="1s" repeatCount="indefinite" values="0 187 120;360 187 120"/>
    </circle>
    <text x="187" y="140" text-anchor="middle" fill="#007bff" font-size="12">Pull to refresh</text>
  </g>
  
  <!-- Swipe Actions (Hidden) -->
  <g id="swipe-actions" opacity="0">
    <rect x="0" y="248" width="345" height="100" fill="#dc3545"/>
    <text x="300" y="305" text-anchor="middle" fill="white" font-size="16">🗑️</text>
    <text x="300" y="285" text-anchor="middle" fill="white" font-size="12">Delete</text>
    
    <rect x="0" y="248" width="275" height="100" fill="#ffc107"/>
    <text x="230" y="305" text-anchor="middle" fill="white" font-size="16">⭐</text>
    <text x="230" y="285" text-anchor="middle" fill="white" font-size="12">Rate</text>
  </g>
  
  <!-- Annotations -->
  <g fill="#ff6b6b" stroke="#ff6b6b" stroke-width="1" font-size="10">
    <!-- Touch-friendly annotation -->
    <line x1="315" y1="273" x2="360" y2="273" stroke-dasharray="2,2"/>
    <text x="365" y="273" fill="#ff6b6b">Touch-friendly</text>
    <text x="365" y="283" fill="#ff6b6b">44px min</text>
    
    <!-- Swipe gestures annotation -->
    <line x1="50" y1="298" x2="10" y2="298" stroke-dasharray="2,2"/>
    <text x="5" y="293" fill="#ff6b6b">Swipe</text>
    <text x="5" y="303" fill="#ff6b6b">actions</text>
    
    <!-- Bottom navigation annotation -->
    <line x1="187" y1="748" x2="187" y2="738" stroke-dasharray="2,2"/>
    <text x="120" y="735" fill="#ff6b6b">Tab navigation</text>
    
    <!-- FAB annotation -->
    <line x1="330" y1="676" x2="330" y2="660" stroke-dasharray="2,2"/>
    <text x="290" y="655" fill="#ff6b6b">Quick add</text>
  </g>
  
  <!-- Title -->
  <text x="187" y="20" text-anchor="middle" fill="#343a40" font-size="14" font-weight="bold">Mobile Library View</text>
</svg>