<svg xmlns="http://www.w3.org/2000/svg" width="48" height="48" viewBox="0 0 48 48"><path fill-rule="evenodd" fill="#ffffff" d="M4.5,16 h39.0 a1.5,1.5 0 0 1 1.5,1.5 v13.0 a1.5,1.5 0 0 1 -1.5,1.5 h-39.0 a1.5,1.5 0 0 1 -1.5,-1.5 v-13.0 a1.5,1.5 0 0 1 1.5,-1.5 zM9.9,20.7 h2.2 v2.1999999999999997 h2.1999999999999997 v2.2 h-2.1999999999999997 v2.1999999999999997 h-2.2 v-2.1999999999999997 h-2.1999999999999997 v-2.2 h2.1999999999999997 zM20,23 h2 a1,1 0 0 1 1,1 v0 a1,1 0 0 1 -1,1 h-2 a1,1 0 0 1 -1,-1 v-0 a1,1 0 0 1 1,-1 zM26,23 h2 a1,1 0 0 1 1,1 v0 a1,1 0 0 1 -1,1 h-2 a1,1 0 0 1 -1,-1 v-0 a1,1 0 0 1 1,-1 zM33.0,24 a2.0,2.0 0 1 0 4.0,0 a2.0,2.0 0 1 0 -4.0,0 zM38.0,24 a2.0,2.0 0 1 0 4.0,0 a2.0,2.0 0 1 0 -4.0,0 z"/></svg>