<svg xmlns="http://www.w3.org/2000/svg" width="48" height="48" viewBox="0 0 48 48"><path fill-rule="evenodd" fill="#000000" d="M19,7 h10 a5,5 0 0 1 5,5 v24 a5,5 0 0 1 -5,5 h-10 a5,5 0 0 1 -5,-5 v-24 a5,5 0 0 1 5,-5 zM18.5,10.5 h11.0 a1.5,1.5 0 0 1 1.5,1.5 v10.0 a1.5,1.5 0 0 1 -1.5,1.5 h-11.0 a1.5,1.5 0 0 1 -1.5,-1.5 v-10.0 a1.5,1.5 0 0 1 1.5,-1.5 zM19.0,30.2 h2.0 v1.7999999999999998 h1.7999999999999998 v2.0 h-1.7999999999999998 v1.7999999999999998 h-2.0 v-1.7999999999999998 h-1.7999999999999998 v-2.0 h1.7999999999999998 zM27.4,32 a1.6,1.6 0 1 0 3.2,0 a1.6,1.6 0 1 0 -3.2,0 zM25.4,35 a1.6,1.6 0 1 0 3.2,0 a1.6,1.6 0 1 0 -3.2,0 z"/></svg>