<svg xmlns="http://www.w3.org/2000/svg" width="48" height="48" viewBox="0 0 48 48"><path fill-rule="evenodd" fill="#ffffff" d="M9.5,18 h29.0 a6.5,6.5 0 0 1 6.5,6.5 v0.0 a6.5,6.5 0 0 1 -6.5,6.5 h-29.0 a6.5,6.5 0 0 1 -6.5,-6.5 v-0.0 a6.5,6.5 0 0 1 6.5,-6.5 zM10.0,21.5 h2.0 v2.0 h2.0 v2.0 h-2.0 v2.0 h-2.0 v-2.0 h-2.0 v-2.0 h2.0 zM19.9,24 h1.7000000000000002 a0.9,0.9 0 0 1 0.9,0.9 v0.0 a0.9,0.9 0 0 1 -0.9,0.9 h-1.7000000000000002 a0.9,0.9 0 0 1 -0.9,-0.9 v-0.0 a0.9,0.9 0 0 1 0.9,-0.9 zM25.4,24 h1.7000000000000002 a0.9,0.9 0 0 1 0.9,0.9 v0.0 a0.9,0.9 0 0 1 -0.9,0.9 h-1.7000000000000002 a0.9,0.9 0 0 1 -0.9,-0.9 v-0.0 a0.9,0.9 0 0 1 0.9,-0.9 zM32.0,24.5 a1.6,1.6 0 1 0 3.2,0 a1.6,1.6 0 1 0 -3.2,0 zM35.4,21.1 a1.6,1.6 0 1 0 3.2,0 a1.6,1.6 0 1 0 -3.2,0 zM38.8,24.5 a1.6,1.6 0 1 0 3.2,0 a1.6,1.6 0 1 0 -3.2,0 zM35.4,27.9 a1.6,1.6 0 1 0 3.2,0 a1.6,1.6 0 1 0 -3.2,0 z"/></svg>