<?xml version="1.0" encoding="utf-8"?>
<!-- Uploaded to: SVG Repo, www.svgrepo.com, Generator: SVG Repo Mixer Tools -->
<svg fill="#ffffff" width="800px" height="800px" viewBox="0 0 814 1000" version="1.1" xmlns="http://www.w3.org/2000/svg">
<title>apple</title>
<path d="M788.1 340.9c-5.8 4.5-108.2 62.2-108.2 190.5 0 148.4 130.3 200.9 134.2 202.2-.6 3.2-20.7 71.9-68.7 141.9-42.8 61.6-87.5 123.1-155.5 123.1s-85.5-39.5-164-39.5c-76 0-103.7 40.8-165.9 40.8s-105-57.8-155.5-127.4C46 790.7 0 663 0 541.8c0-207.3 135.3-316.9 269-316.9 69.5 0 127.5 45.8 170.4 45.8 41 0 106.9-49.4 185.2-49.4 29.5.1 108.1 2.4 165.5 74.6zm-79.3-234.6c35.4-42.8 60.3-102.4 60.3-161.9 0-8.3-.5-16.7-1.9-23.7-57.2 2.2-124.7 38.4-165.7 86.4-31.5 35.9-60.8 95.5-60.8 155.9 0 8.9 1.4 17.8 2.2 20.7 3.5.6 9 1.4 14.5 1.4 51.6 0 115.7-34.6 151.4-78.8z"/>
</svg>
